<svg width="35" height="35" viewBox="0 0 35 35" fill="none" xmlns="http://www.w3.org/2000/svg">
<path d="M17.5 35C27.165 35 35 27.165 35 17.5C35 7.83502 27.165 0 17.5 0C7.83502 0 0 7.83502 0 17.5C0 27.165 7.83502 35 17.5 35Z" fill="#40DD78"/>
<path d="M24.3738 24.1223C24.0978 24.6148 23.6872 24.6759 23.2414 24.4008C21.2931 23.1949 19.0688 22.3972 16.6651 22.135C14.1971 21.866 11.8025 22.1916 9.60757 22.9942C9.37217 23.0807 8.87509 23.0756 8.72068 22.3909C8.56616 21.705 8.95413 21.3697 9.16545 21.2944C11.5585 20.4372 14.1601 20.0863 16.8429 20.3785C19.479 20.6659 21.9629 21.4616 24.054 22.8581C24.3837 23.0783 24.6495 23.6296 24.3738 24.1223ZM26.0954 20.1923C25.913 20.4058 25.6486 20.5391 25.354 20.5071C25.2724 20.4982 25.2009 20.4628 25.1288 20.4329C22.7354 19.01 20.0299 18.0627 17.1098 17.7444C14.2113 17.4291 11.3941 17.7643 8.78389 18.6257C8.6904 18.6491 8.59427 18.6675 8.4932 18.6564C8.1931 18.6237 7.95781 18.4301 7.82371 18.1744L7.71025 17.6392C7.74019 17.3713 7.88451 17.1519 8.08205 17.0066C10.961 16.0274 14.0786 15.6381 17.2882 15.9877C20.4967 16.3371 23.4662 17.3871 26.0854 18.9669C26.2532 19.1495 26.3466 19.4015 26.3242 19.6701L26.0954 20.1923ZM7.49481 11.6557C10.7564 10.6879 14.2424 10.3282 17.822 10.7185C21.3692 11.105 24.6786 12.1897 27.6526 13.8141C28.0503 14.0817 28.3003 14.5505 28.2476 15.0727C28.1726 15.8129 27.5324 16.349 26.8196 16.2715C26.7198 16.2605 26.628 16.2273 26.5377 16.1942C23.8235 14.7015 20.7978 13.7055 17.5554 13.3522C14.3105 12.9984 11.1488 13.3209 8.19344 14.1989C8.10006 14.21 8.00645 14.2219 7.90883 14.211C7.19609 14.1332 6.67768 13.4708 6.7527 12.7309C6.80203 12.2438 7.09731 11.849 7.49481 11.6557Z" fill="white"/>
</svg>
