<svg width="35" height="35" viewBox="0 0 35 35" fill="none" xmlns="http://www.w3.org/2000/svg">
<path d="M17.5 35C27.165 35 35 27.165 35 17.5C35 7.83502 27.165 0 17.5 0C7.83502 0 0 7.83502 0 17.5C0 27.165 7.83502 35 17.5 35Z" fill="url(#paint0_linear_1_709)"/>
<path d="M17.5 35C27.165 35 35 27.165 35 17.5C35 7.83502 27.165 0 17.5 0C7.83502 0 0 7.83502 0 17.5C0 27.165 7.83502 35 17.5 35Z" fill="url(#paint1_linear_1_709)"/>
<path d="M17.5 35C27.165 35 35 27.165 35 17.5C35 7.83502 27.165 0 17.5 0C7.83502 0 0 7.83502 0 17.5C0 27.165 7.83502 35 17.5 35Z" fill="url(#paint2_linear_1_709)" fill-opacity="0.6"/>
<path d="M17.5 35C27.165 35 35 27.165 35 17.5C35 7.83502 27.165 0 17.5 0C7.83502 0 0 7.83502 0 17.5C0 27.165 7.83502 35 17.5 35Z" fill="url(#paint3_linear_1_709)"/>
<path d="M17.5 35C27.165 35 35 27.165 35 17.5C35 7.83502 27.165 0 17.5 0C7.83502 0 0 7.83502 0 17.5C0 27.165 7.83502 35 17.5 35Z" fill="url(#paint4_linear_1_709)"/>
<path d="M17.5 35C27.165 35 35 27.165 35 17.5C35 7.83502 27.165 0 17.5 0C7.83502 0 0 7.83502 0 17.5C0 27.165 7.83502 35 17.5 35Z" fill="url(#paint5_linear_1_709)"/>
<path d="M17.5 35C27.165 35 35 27.165 35 17.5C35 7.83502 27.165 0 17.5 0C7.83502 0 0 7.83502 0 17.5C0 27.165 7.83502 35 17.5 35Z" fill="url(#paint6_linear_1_709)"/>
<path fill-rule="evenodd" clip-rule="evenodd" d="M17.5001 32.8294C9.03389 32.8294 2.17065 25.9662 2.17065 17.5C2.17065 9.03376 9.03389 2.17053 17.5001 2.17053C25.9663 2.17053 32.8296 9.03376 32.8296 17.5C32.8296 25.9662 25.9663 32.8294 17.5001 32.8294ZM13.5495 9.4362L13.5371 13.7798L13.5495 21.546C13.0859 21.265 12.5176 21.0979 11.9071 21.0979C10.3345 21.0979 9.06692 22.1986 9.06692 23.5498C9.06692 24.9009 10.3345 25.9891 11.9071 25.9891C13.4797 25.9891 14.8157 24.8997 14.7596 23.5498L14.7309 22.8569L14.6608 13.4686L23.0332 11.1911V19.7662C22.5443 19.4266 21.9203 19.2186 21.2426 19.2186C19.67 19.2186 18.4025 20.3193 18.4025 21.6704C18.4025 23.0216 19.67 24.1098 21.2426 24.1098C22.8153 24.1098 24.1372 23.0216 24.1372 21.6704C24.1372 21.662 24.1396 18.0693 24.1446 10.8924V7.04662V6.54877L13.5495 9.4362Z" fill="url(#paint7_linear_1_709)"/>
<defs>
<linearGradient id="paint0_linear_1_709" x1="33.6747" y1="11.9422" x2="1.15628" y2="21.7097" gradientUnits="userSpaceOnUse">
<stop stop-color="#799FD5"/>
<stop offset="1" stop-color="#BC75B1"/>
</linearGradient>
<linearGradient id="paint1_linear_1_709" x1="27.6585" y1="3.70095" x2="7.79827" y2="31.6059" gradientUnits="userSpaceOnUse">
<stop stop-color="#E75D7F"/>
<stop offset="1" stop-color="#9551FC"/>
</linearGradient>
<linearGradient id="paint2_linear_1_709" x1="26.2309" y1="33.0457" x2="7.46124" y2="2.2177" gradientUnits="userSpaceOnUse">
<stop stop-color="#23C9FE"/>
<stop offset="1" stop-color="#FF5C51"/>
</linearGradient>
<linearGradient id="paint3_linear_1_709" x1="30.6852" y1="34.5262" x2="12.9072" y2="9.77592" gradientUnits="userSpaceOnUse">
<stop stop-color="#18C7FB" stop-opacity="0.557214"/>
<stop offset="0.449813" stop-color="#25CAFB" stop-opacity="0.68"/>
<stop offset="1" stop-color="white" stop-opacity="0"/>
</linearGradient>
<linearGradient id="paint4_linear_1_709" x1="17.5" y1="12.7419" x2="-5.98606e-07" y2="22.4526" gradientUnits="userSpaceOnUse">
<stop stop-color="white" stop-opacity="0"/>
<stop offset="0.39444" stop-color="#B689FC" stop-opacity="0.677712"/>
<stop offset="1" stop-color="#9451FB"/>
</linearGradient>
<linearGradient id="paint5_linear_1_709" x1="22.5809" y1="11.9576" x2="37.4519" y2="2.42511e-07" gradientUnits="userSpaceOnUse">
<stop stop-color="white" stop-opacity="0"/>
<stop offset="0.39444" stop-color="#B689FC" stop-opacity="0.677712"/>
<stop offset="0.727252" stop-color="#B689FC" stop-opacity="0.677712"/>
<stop offset="1" stop-color="#9451FB"/>
</linearGradient>
<linearGradient id="paint6_linear_1_709" x1="17.5" y1="17.5" x2="9.85912" y2="-2.87162" gradientUnits="userSpaceOnUse">
<stop stop-color="white" stop-opacity="0"/>
<stop offset="0.181776" stop-color="#FFA29A" stop-opacity="0.5"/>
<stop offset="1" stop-color="#FF5E50"/>
</linearGradient>
<linearGradient id="paint7_linear_1_709" x1="10.4289" y1="29.5811" x2="26.7763" y2="-6.35213" gradientUnits="userSpaceOnUse">
<stop stop-color="#E0E2E8"/>
<stop offset="1" stop-color="white"/>
</linearGradient>
</defs>
</svg>
