<svg width="25" height="25" viewBox="0 0 25 25" fill="none" xmlns="http://www.w3.org/2000/svg">
<path fill-rule="evenodd" clip-rule="evenodd" d="M12.3046 0.00431442C12.3629 0.00231805 12.4306 0 12.5 0C12.5694 0 12.6371 0.00231805 12.6954 0.00431442L12.6988 0.00443089L12.933 0.0110425C16.3442 0.127839 19.4107 1.61717 21.5987 3.94157L21.5995 3.94232C21.6034 3.94638 21.6077 3.95097 21.6124 3.9561L21.6383 3.98364C23.7204 6.21654 25 9.21116 25 12.5C25 15.6608 23.8182 18.5499 21.878 20.7522C21.8739 20.7581 21.8695 20.764 21.8648 20.7701C21.8415 20.8006 21.8177 20.8246 21.7974 20.8427C19.5986 23.2911 16.4473 24.8687 12.9318 24.9894L12.9279 24.9895L12.6988 24.9956L12.6968 24.9956C12.6382 24.9976 12.57 25 12.5 25C12.4417 25 12.383 24.9983 12.3326 24.9969C12.3228 24.9966 12.3134 24.9963 12.3043 24.9961L12.0704 24.9895L12.0674 24.9894C8.55221 24.869 5.40201 23.2918 3.203 20.8444C3.19975 20.8415 3.19633 20.8383 3.19284 20.835C3.17497 20.818 3.15225 20.7942 3.12927 20.7632C3.12573 20.7584 3.12235 20.7536 3.11911 20.749C1.1806 18.5471 0 15.6592 0 12.5C0 9.1994 1.28881 6.19498 3.38453 3.95993C3.39433 3.9488 3.40371 3.9391 3.41221 3.93085C5.59952 1.61261 8.66225 0.127256 12.0683 0.0106376L12.0721 0.0105222L12.3012 0.00443089L12.3046 0.00431442ZM13.4138 2.75435V6.16792C14.1845 6.11816 14.9441 6.00592 15.6875 5.8325C15.0803 4.71601 14.3175 3.68027 13.4138 2.75435ZM11.5862 2.75435V6.16792C10.8155 6.11816 10.0559 6.00592 9.31247 5.8325C9.91973 4.716 10.6825 3.68027 11.5862 2.75435ZM9.58445 2.23585C8.09801 2.65852 6.74266 3.39618 5.59513 4.37274C6.21822 4.72822 6.86445 5.03326 7.52948 5.28667C8.08917 4.19751 8.77838 3.17435 9.58445 2.23585ZM9.58624 22.7647C8.69636 21.7262 7.95075 20.584 7.36269 19.3656C6.65656 19.6458 5.97214 19.9846 5.31441 20.3808C6.51967 21.4806 7.97613 22.3073 9.58624 22.7647ZM13.4138 22.2455C14.4157 21.2187 15.244 20.0569 15.8797 18.7997C15.0756 18.6 14.2515 18.4723 13.4138 18.4185V22.2455ZM11.5862 22.2455V18.4186C10.7484 18.4726 9.92424 18.6001 9.12028 18.7999C9.75602 20.0569 10.5843 21.2187 11.5862 22.2455ZM15.414 22.7647C17.024 22.3072 18.4804 21.4805 19.6855 20.3808C19.0276 19.9846 18.3434 19.6458 17.6373 19.3656C17.0493 20.5841 16.3038 21.7263 15.414 22.7647ZM15.4156 2.23577C16.9021 2.65842 18.2573 3.39608 19.4051 4.3727C18.7818 4.72821 18.1356 5.03326 17.4705 5.28667C16.9108 4.19747 16.2216 3.17428 15.4156 2.23577ZM4.27157 5.71409C2.92837 7.33946 2.05831 9.36677 1.86917 11.5862H5.82518C5.91597 9.9872 6.24227 8.42987 6.79081 6.96001C5.91962 6.6223 5.07705 6.20662 4.27157 5.71409ZM18.2092 6.96001C18.7577 8.42988 19.084 9.9872 19.1748 11.5862H23.1308C22.9417 9.36677 22.0716 7.33946 20.7284 5.71409C19.9229 6.20662 19.0804 6.6223 18.2092 6.96001ZM8.53441 7.5244C8.04455 8.81294 7.74654 10.1794 7.65589 11.5862H11.5862V7.99866C10.5496 7.9397 9.52864 7.78117 8.53441 7.5244ZM13.4138 7.99868V11.5862H17.3445C17.2539 10.1795 16.9559 8.81299 16.466 7.52447C15.4714 7.78147 14.4504 7.93978 13.4138 7.99868ZM1.86916 13.4138C2.04781 15.5101 2.83412 17.4351 4.05263 19.0121C4.88605 18.4832 5.7599 18.0376 6.66567 17.6768C6.1946 16.3148 5.90919 14.8829 5.82525 13.4138H1.86916ZM7.65586 13.4138C7.73772 14.6838 7.98947 15.9207 8.39839 17.0973C9.43519 16.8195 10.5017 16.6493 11.5862 16.5879V13.4138H7.65586ZM13.4138 13.4138V16.5879C14.4982 16.6493 15.5647 16.8195 16.6013 17.0975C17.0105 15.9207 17.2623 14.6838 17.3441 13.4138H13.4138ZM19.1748 13.4138H23.1308C22.9522 15.5101 22.1662 17.4352 20.9474 19.0121C20.114 18.4833 19.2402 18.0376 18.3344 17.6769C18.8057 16.3147 19.0909 14.8828 19.1748 13.4138Z" fill="#FF6C6C"/>
</svg>
